# xmcd
#
# Track frame offsets: 
#        183
#        16580
#        36943
#        65083
#
# Disc length: 980 seconds
#
# Revision: 1
# Processed by: cddbd v1.5.2PL0 Copyright (c) Steve Scherf et al.
# Submitted via: ExactAudioCopy v0.99pb3
#
DISCID=2b03d204
DTITLE=Tin Machine - Maggie's Farm (live) and Tin Machine
DYEAR=1989
DGENRE=Rock
TTITLE0=Tin Machine
TTITLE1=Maggie's Farm (Live)
TTITLE2=I Can't Read (Live)
TTITLE3=Bus Stop (Live Country Version)
EXTD=
EXTT0=
EXTT1=
EXTT2=
EXTT3=
PLAYORDER=
